<svg xmlns="http://www.w3.org/2000/svg" xmlns:xlink="http://www.w3.org/1999/xlink" xmlns:s="https://github.com/nturley/netlistsvg" width="438.5" height="314"><style>svg {
  stroke:#000;
  fill:none;
}
text {
  fill:#000;
  stroke:none;
  font-size:10px;
  font-weight: bold;
  font-family: "Courier New", monospace;
}
line {
    stroke-linecap: round;
}
.nodelabel {
  text-anchor: middle;
}
.inputPortLabel {
  text-anchor: end;
}
.splitjoinBody {
  fill:#000;
}</style><g s:type="mux-bus" transform="translate(298,28.5)" s:width="24" s:height="40" id="cell_$procmux$132"><s:alias val="$pmux-bus"/><s:alias val="$mux-bus"/><s:alias val="$_MUX_-bus"/><path d="M0,0 L20,10 L20,30 L0,40 Z" class="cell_$procmux$132"/><path d="M4,2 L4,0 L22,9 L22,31 L4,40 L4,38" class="cell_$procmux$132"/><path d="M8,2 L8,0 L24,8 L24,32 L8,40 L8,38" class="cell_$procmux$132"/><text x="5" y="32" class="nodelabel cell_$procmux$132" s:attribute="">1</text><text x="5" y="13" class="nodelabel cell_$procmux$132" s:attribute="">0</text><g s:x="-1" s:y="10" s:pid="A"/><g s:x="-1" s:y="30" s:pid="B"/><g s:x="12" s:y="38" s:pid="S"/><g s:x="24.5" s:y="20" s:pid="Y"/></g><g s:type="eq" transform="translate(146.33333333333334,16)" s:width="25" s:height="25" id="cell_$procmux$133_CMP0"><s:alias val="$eq"/><s:alias val="$eqx"/><circle r="12.5" cx="12.5" cy="12.5" class="cell_$procmux$133_CMP0"/><line x1="7.5" x2="17.5" y1="10" y2="10" class="cell_$procmux$133_CMP0"/><line x1="7.5" x2="17.5" y1="15" y2="15" class="cell_$procmux$133_CMP0"/><g s:x="2" s:y="5" s:pid="A"/><g s:x="2" s:y="20" s:pid="B"/><g s:x="25" s:y="12.5" s:pid="Y"/></g><g s:type="eq" transform="translate(146.33333333333334,76)" s:width="25" s:height="25" id="cell_$procmux$134_CMP0"><s:alias val="$eq"/><s:alias val="$eqx"/><circle r="12.5" cx="12.5" cy="12.5" class="cell_$procmux$134_CMP0"/><line x1="7.5" x2="17.5" y1="10" y2="10" class="cell_$procmux$134_CMP0"/><line x1="7.5" x2="17.5" y1="15" y2="15" class="cell_$procmux$134_CMP0"/><g s:x="2" s:y="5" s:pid="A"/><g s:x="2" s:y="20" s:pid="B"/><g s:x="25" s:y="12.5" s:pid="Y"/></g><g s:type="eq" transform="translate(146.33333333333334,157)" s:width="25" s:height="25" id="cell_$procmux$135_CMP0"><s:alias val="$eq"/><s:alias val="$eqx"/><circle r="12.5" cx="12.5" cy="12.5" class="cell_$procmux$135_CMP0"/><line x1="7.5" x2="17.5" y1="10" y2="10" class="cell_$procmux$135_CMP0"/><line x1="7.5" x2="17.5" y1="15" y2="15" class="cell_$procmux$135_CMP0"/><g s:x="2" s:y="5" s:pid="A"/><g s:x="2" s:y="20" s:pid="B"/><g s:x="25" s:y="12.5" s:pid="Y"/></g><g s:type="not" transform="translate(145,217)" s:width="30" s:height="20" id="cell_$procmux$136_CMP0"><s:alias val="$_NOT_"/><s:alias val="$not"/><s:alias val="$logic_not"/><path d="M0,0 L0,20 L20,10 Z" class="cell_$procmux$136_CMP0"/><circle cx="24" cy="10" r="3" class="cell_$procmux$136_CMP0"/><g s:x="-1" s:y="10" s:pid="A"/><g s:x="27" s:y="10" s:pid="Y"/></g><g s:type="inputExt" transform="translate(12,217)" s:width="30" s:height="20" id="cell_A"><text x="15" y="-4" class="nodelabel cell_A" s:attribute="ref">A</text><s:alias val="$_inputExt_"/><path d="M0,0 L0,20 L15,20 L30,10 L15,0 Z" class="cell_A"/><g s:x="30" s:y="10" s:pid="Y"/></g><g s:type="outputExt" transform="translate(396.5,38.5)" s:width="30" s:height="20" id="cell_Y"><text x="15" y="-4" class="nodelabel cell_Y" s:attribute="ref">Y</text><s:alias val="$_outputExt_"/><path d="M30,0 L30,20 L15,20 L0,10 L15,0 Z" class="cell_Y"/><g s:x="0" s:y="10" s:pid="A"/></g><g s:type="constant" transform="translate(78,167)" s:width="30" s:height="20" id="cell_1"><text x="15" y="-4" class="nodelabel cell_1" s:attribute="ref">1</text><s:alias val="$_constant_"/><rect width="30" height="20" class="cell_1"/><g s:x="31" s:y="10" s:pid="Y"/></g><g s:type="constant" transform="translate(12,26)" s:width="30" s:height="20" id="cell_11"><text x="15" y="-4" class="nodelabel cell_11" s:attribute="ref">11</text><s:alias val="$_constant_"/><rect width="30" height="20" class="cell_11"/><g s:x="31" s:y="10" s:pid="Y"/></g><g s:type="constant" transform="translate(12,282)" s:width="30" s:height="20" id="cell_10"><text x="15" y="-4" class="nodelabel cell_10" s:attribute="ref">10</text><s:alias val="$_constant_"/><rect width="30" height="20" class="cell_10"/><g s:x="31" s:y="10" s:pid="Y"/></g><g s:type="join" transform="translate(217,58)" s:width="4" s:height="40" id="cell_$join$,8,9,10,11,"><rect width="5" height="80" class="splitjoinBody" s:generic="body"/><s:alias val="$_join_"/><g s:x="5" s:y="20" s:pid="out"/><g transform="translate(0,10)" s:x="0" s:y="10" s:pid="in0"><text x="-3" y="-4" class="inputPortLabel">0</text></g><g transform="translate(0,30)" s:x="0" s:y="10" s:pid="in0"><text x="-3" y="-4" class="inputPortLabel">1</text></g><g transform="translate(0,50)" s:x="0" s:y="10" s:pid="in0"><text x="-3" y="-4" class="inputPortLabel">2</text></g><g transform="translate(0,70)" s:x="0" s:y="10" s:pid="in0"><text x="-3" y="-4" class="inputPortLabel">3</text></g></g><line x1="223" x2="310" y1="78.5" y2="78.5" class="net_8,9,10,11 width_4" style="stroke-width: 2"/><line x1="310" x2="310" y1="78.5" y2="66.5" class="net_8,9,10,11 width_4" style="stroke-width: 2"/><line x1="42" x2="63" y1="227" y2="227" class="net_2,3 width_2" style="stroke-width: 2"/><line x1="63" x2="63" y1="227" y2="16" class="net_2,3 width_2" style="stroke-width: 2"/><line x1="63" x2="119" y1="16" y2="16" class="net_2,3 width_2" style="stroke-width: 2"/><line x1="119" x2="119" y1="16" y2="21" class="net_2,3 width_2" style="stroke-width: 2"/><circle cx="63" cy="227" r="3" style="fill:#000" class="net_2,3 width_2"/><line x1="119" x2="148.33333333333334" y1="21" y2="21" class="net_2,3 width_2" style="stroke-width: 2"/><line x1="42" x2="63" y1="227" y2="227" class="net_2,3 width_2" style="stroke-width: 2"/><line x1="63" x2="63" y1="227" y2="76" class="net_2,3 width_2" style="stroke-width: 2"/><line x1="63" x2="119" y1="76" y2="76" class="net_2,3 width_2" style="stroke-width: 2"/><line x1="119" x2="119" y1="76" y2="81" class="net_2,3 width_2" style="stroke-width: 2"/><circle cx="63" cy="76" r="3" style="fill:#000" class="net_2,3 width_2"/><line x1="119" x2="148.33333333333334" y1="81" y2="81" class="net_2,3 width_2" style="stroke-width: 2"/><line x1="42" x2="63" y1="227" y2="227" class="net_2,3 width_2" style="stroke-width: 2"/><line x1="63" x2="63" y1="227" y2="116" class="net_2,3 width_2" style="stroke-width: 2"/><line x1="63" x2="119" y1="116" y2="116" class="net_2,3 width_2" style="stroke-width: 2"/><line x1="119" x2="119" y1="116" y2="162" class="net_2,3 width_2" style="stroke-width: 2"/><circle cx="63" cy="116" r="3" style="fill:#000" class="net_2,3 width_2"/><line x1="119" x2="148.33333333333334" y1="162" y2="162" class="net_2,3 width_2" style="stroke-width: 2"/><line x1="42" x2="144" y1="227" y2="227" class="net_2,3 width_2" style="stroke-width: 2"/><line x1="43" x2="148.33333333333334" y1="36" y2="36" class="net_16,17 width_2" style="stroke-width: 2"/><line x1="43" x2="53" y1="292" y2="292" class="net_18,19 width_2" style="stroke-width: 2"/><line x1="53" x2="53" y1="292" y2="96" class="net_18,19 width_2" style="stroke-width: 2"/><line x1="53" x2="148.33333333333334" y1="96" y2="96" class="net_18,19 width_2" style="stroke-width: 2"/><line x1="109" x2="148.33333333333334" y1="177" y2="177" class="net_12 width_1" style="stroke-width: 1"/><line x1="322.5" x2="396.5" y1="48.5" y2="48.5" class="net_4,5,6,7 width_4" style="stroke-width: 2"/><line x1="171.33333333333334" x2="185" y1="28.5" y2="28.5" class="net_8 width_1" style="stroke-width: 1"/><line x1="185" x2="185" y1="28.5" y2="68.5" class="net_8 width_1" style="stroke-width: 1"/><line x1="185" x2="217" y1="68.5" y2="68.5" class="net_8 width_1" style="stroke-width: 1"/><line x1="171.33333333333334" x2="217" y1="88.5" y2="88.5" class="net_9 width_1" style="stroke-width: 1"/><line x1="171.33333333333334" x2="185" y1="169.5" y2="169.5" class="net_10 width_1" style="stroke-width: 1"/><line x1="185" x2="185" y1="169.5" y2="108.5" class="net_10 width_1" style="stroke-width: 1"/><line x1="185" x2="217" y1="108.5" y2="108.5" class="net_10 width_1" style="stroke-width: 1"/><line x1="172" x2="217.5" y1="227" y2="227" class="net_11 width_1" style="stroke-width: 1"/><line x1="217.5" x2="217.5" y1="227" y2="129" class="net_11 width_1" style="stroke-width: 1"/><rect x="259" y="73.5" width="16" height="9" class="net_8,9,10,11 width_4 busLabel_4" style="fill: white; stroke: none"/><text x="258" y="81.5" class="net_8,9,10,11 width_4 busLabel_4">/4/</text><rect x="92.5" y="222" width="16" height="9" class="net_2,3 width_2 busLabel_2" style="fill: white; stroke: none"/><text x="91.5" y="230" class="net_2,3 width_2 busLabel_2">/2/</text><rect x="92.5" y="222" width="16" height="9" class="net_2,3 width_2 busLabel_2" style="fill: white; stroke: none"/><text x="91.5" y="230" class="net_2,3 width_2 busLabel_2">/2/</text><rect x="92.5" y="222" width="16" height="9" class="net_2,3 width_2 busLabel_2" style="fill: white; stroke: none"/><text x="91.5" y="230" class="net_2,3 width_2 busLabel_2">/2/</text><rect x="92.5" y="222" width="16" height="9" class="net_2,3 width_2 busLabel_2" style="fill: white; stroke: none"/><text x="91.5" y="230" class="net_2,3 width_2 busLabel_2">/2/</text><rect x="92.5" y="31" width="16" height="9" class="net_16,17 width_2 busLabel_2" style="fill: white; stroke: none"/><text x="91.5" y="39" class="net_16,17 width_2 busLabel_2">/2/</text><rect x="92.5" y="91" width="16" height="9" class="net_18,19 width_2 busLabel_2" style="fill: white; stroke: none"/><text x="91.5" y="99" class="net_18,19 width_2 busLabel_2">/2/</text><rect x="358.5" y="43.5" width="16" height="9" class="net_4,5,6,7 width_4 busLabel_4" style="fill: white; stroke: none"/><text x="357.5" y="51.5" class="net_4,5,6,7 width_4 busLabel_4">/4/</text></svg>