<svg xmlns="http://www.w3.org/2000/svg" xmlns:xlink="http://www.w3.org/1999/xlink" xmlns:s="https://github.com/nturley/netlistsvg" width="1037" height="934.5"><style>svg {
  stroke:#000;
  fill:none;
}
text {
  fill:#000;
  stroke:none;
  font-size:10px;
  font-weight: bold;
  font-family: "Courier New", monospace;
}
line {
    stroke-linecap: round;
}
.nodelabel {
  text-anchor: middle;
}
.inputPortLabel {
  text-anchor: end;
}
.splitjoinBody {
  fill:#000;
}</style><g s:type="eq" transform="translate(566,516.5)" s:width="25" s:height="25" id="cell_$eq$./mainFSB/mainFSB.v:63$2"><s:alias val="$eq"/><s:alias val="$eqx"/><circle r="12.5" cx="12.5" cy="12.5" class="cell_$eq$./mainFSB/mainFSB.v:63$2"/><line x1="7.5" x2="17.5" y1="10" y2="10" class="cell_$eq$./mainFSB/mainFSB.v:63$2"/><line x1="7.5" x2="17.5" y1="15" y2="15" class="cell_$eq$./mainFSB/mainFSB.v:63$2"/><g s:x="2" s:y="5" s:pid="A"/><g s:x="2" s:y="20" s:pid="B"/><g s:x="25" s:y="12.5" s:pid="Y"/></g><g s:type="eq" transform="translate(763,824.5)" s:width="25" s:height="25" id="cell_$eq$./mainFSB/mainFSB.v:72$5"><s:alias val="$eq"/><s:alias val="$eqx"/><circle r="12.5" cx="12.5" cy="12.5" class="cell_$eq$./mainFSB/mainFSB.v:72$5"/><line x1="7.5" x2="17.5" y1="10" y2="10" class="cell_$eq$./mainFSB/mainFSB.v:72$5"/><line x1="7.5" x2="17.5" y1="15" y2="15" class="cell_$eq$./mainFSB/mainFSB.v:72$5"/><g s:x="2" s:y="5" s:pid="A"/><g s:x="2" s:y="20" s:pid="B"/><g s:x="25" s:y="12.5" s:pid="Y"/></g><g s:type="gt" transform="translate(763,493)" s:width="25" s:height="25" id="cell_$gt$./mainFSB/mainFSB.v:68$4"><s:alias val="$gt"/><circle r="12" cx="12" cy="12" class="cell_$gt$./mainFSB/mainFSB.v:68$4"/><line x1="8" x2="19" y1="7" y2="12" class="cell_$gt$./mainFSB/mainFSB.v:68$4"/><line x1="8" x2="19" y1="17" y2="12" class="cell_$gt$./mainFSB/mainFSB.v:68$4"/><g s:x="2" s:y="5" s:pid="A"/><g s:x="2" s:y="20" s:pid="B"/><g s:x="25" s:y="12.5" s:pid="Y"/></g><g s:type="lt" transform="translate(628,741)" s:width="25" s:height="25" id="cell_$lt$./mainFSB/mainFSB.v:64$3"><s:alias val="$lt"/><circle r="12.5" cx="12.5" cy="12.5" class="cell_$lt$./mainFSB/mainFSB.v:64$3"/><line x1="6" x2="17" y1="12" y2="7" class="cell_$lt$./mainFSB/mainFSB.v:64$3"/><line x1="6" x2="17" y1="12" y2="17" class="cell_$lt$./mainFSB/mainFSB.v:64$3"/><g s:x="2" s:y="5" s:pid="A"/><g s:x="2" s:y="20" s:pid="B"/><g s:x="25" s:y="12.5" s:pid="Y"/></g><g s:type="dff-bus" transform="translate(296,579.5)" s:width="34" s:height="44" id="cell_$procdff$21"><s:alias val="$dff-bus"/><s:alias val="$_DFF_-bus"/><s:alias val="$_DFF_P_-bus"/><s:alias val="adff-bus"/><s:alias val="$adff-bus"/><s:alias val="$_DFF_-bus"/><s:alias val="$_DFF_P_-bus"/><s:alias val="sdff-bus"/><s:alias val="$sdff-bus"/><s:alias val="$_DFF_-bus"/><s:alias val="$_DFF_P_-bus"/><rect width="30" height="40" x="0" y="0" class="cell_$procdff$21"/><path d="M0,35 L5,30 L0,25" class="cell_$procdff$21"/><path d="M30,2 L32,2 L32,42 L2,42 L2,40" class="cell_$procdff$21"/><path d="M32,4 L34,4 L34,44 L4,44 L4,42" class="cell_$procdff$21"/><g s:x="35" s:y="10" s:pid="Q"/><g s:x="-1" s:y="30" s:pid="CLK"/><g s:x="-1" s:y="30" s:pid="C"/><g s:x="-1" s:y="10" s:pid="D"/><g s:x="17" s:y="44" s:pid="ARST"/><g s:x="17" s:y="44" s:pid="SRST"/></g><g s:type="dff-bus" transform="translate(693,142)" s:width="34" s:height="44" id="cell_$procdff$22"><s:alias val="$dff-bus"/><s:alias val="$_DFF_-bus"/><s:alias val="$_DFF_P_-bus"/><s:alias val="adff-bus"/><s:alias val="$adff-bus"/><s:alias val="$_DFF_-bus"/><s:alias val="$_DFF_P_-bus"/><s:alias val="sdff-bus"/><s:alias val="$sdff-bus"/><s:alias val="$_DFF_-bus"/><s:alias val="$_DFF_P_-bus"/><rect width="30" height="40" x="0" y="0" class="cell_$procdff$22"/><path d="M0,35 L5,30 L0,25" class="cell_$procdff$22"/><path d="M30,2 L32,2 L32,42 L2,42 L2,40" class="cell_$procdff$22"/><path d="M32,4 L34,4 L34,44 L4,44 L4,42" class="cell_$procdff$22"/><g s:x="35" s:y="10" s:pid="Q"/><g s:x="-1" s:y="30" s:pid="CLK"/><g s:x="-1" s:y="30" s:pid="C"/><g s:x="-1" s:y="10" s:pid="D"/><g s:x="17" s:y="44" s:pid="ARST"/><g s:x="17" s:y="44" s:pid="SRST"/></g><g s:type="dff-bus" transform="translate(824,101)" s:width="34" s:height="44" id="cell_$procdff$23"><s:alias val="$dff-bus"/><s:alias val="$_DFF_-bus"/><s:alias val="$_DFF_P_-bus"/><s:alias val="adff-bus"/><s:alias val="$adff-bus"/><s:alias val="$_DFF_-bus"/><s:alias val="$_DFF_P_-bus"/><s:alias val="sdff-bus"/><s:alias val="$sdff-bus"/><s:alias val="$_DFF_-bus"/><s:alias val="$_DFF_P_-bus"/><rect width="30" height="40" x="0" y="0" class="cell_$procdff$23"/><path d="M0,35 L5,30 L0,25" class="cell_$procdff$23"/><path d="M30,2 L32,2 L32,42 L2,42 L2,40" class="cell_$procdff$23"/><path d="M32,4 L34,4 L34,44 L4,44 L4,42" class="cell_$procdff$23"/><g s:x="35" s:y="10" s:pid="Q"/><g s:x="-1" s:y="30" s:pid="CLK"/><g s:x="-1" s:y="30" s:pid="C"/><g s:x="-1" s:y="10" s:pid="D"/><g s:x="17" s:y="44" s:pid="ARST"/><g s:x="17" s:y="44" s:pid="SRST"/></g><g s:type="dff-bus" transform="translate(693,353)" s:width="34" s:height="44" id="cell_$procdff$24"><s:alias val="$dff-bus"/><s:alias val="$_DFF_-bus"/><s:alias val="$_DFF_P_-bus"/><s:alias val="adff-bus"/><s:alias val="$adff-bus"/><s:alias val="$_DFF_-bus"/><s:alias val="$_DFF_P_-bus"/><s:alias val="sdff-bus"/><s:alias val="$sdff-bus"/><s:alias val="$_DFF_-bus"/><s:alias val="$_DFF_P_-bus"/><rect width="30" height="40" x="0" y="0" class="cell_$procdff$24"/><path d="M0,35 L5,30 L0,25" class="cell_$procdff$24"/><path d="M30,2 L32,2 L32,42 L2,42 L2,40" class="cell_$procdff$24"/><path d="M32,4 L34,4 L34,44 L4,44 L4,42" class="cell_$procdff$24"/><g s:x="35" s:y="10" s:pid="Q"/><g s:x="-1" s:y="30" s:pid="CLK"/><g s:x="-1" s:y="30" s:pid="C"/><g s:x="-1" s:y="10" s:pid="D"/><g s:x="17" s:y="44" s:pid="ARST"/><g s:x="17" s:y="44" s:pid="SRST"/></g><g s:type="mux-bus" transform="translate(833.3333333333334,278)" s:width="24" s:height="40" id="cell_$procmux$11"><s:alias val="$pmux-bus"/><s:alias val="$mux-bus"/><s:alias val="$_MUX_-bus"/><path d="M0,0 L20,10 L20,30 L0,40 Z" class="cell_$procmux$11"/><path d="M4,2 L4,0 L22,9 L22,31 L4,40 L4,38" class="cell_$procmux$11"/><path d="M8,2 L8,0 L24,8 L24,32 L8,40 L8,38" class="cell_$procmux$11"/><text x="5" y="32" class="nodelabel cell_$procmux$11" s:attribute="">1</text><text x="5" y="13" class="nodelabel cell_$procmux$11" s:attribute="">0</text><g s:x="-1" s:y="10" s:pid="A"/><g s:x="-1" s:y="30" s:pid="B"/><g s:x="12" s:y="38" s:pid="S"/><g s:x="24.5" s:y="20" s:pid="Y"/></g><g s:type="mux-bus" transform="translate(934,268)" s:width="24" s:height="40" id="cell_$procmux$13"><s:alias val="$pmux-bus"/><s:alias val="$mux-bus"/><s:alias val="$_MUX_-bus"/><path d="M0,0 L20,10 L20,30 L0,40 Z" class="cell_$procmux$13"/><path d="M4,2 L4,0 L22,9 L22,31 L4,40 L4,38" class="cell_$procmux$13"/><path d="M8,2 L8,0 L24,8 L24,32 L8,40 L8,38" class="cell_$procmux$13"/><text x="5" y="32" class="nodelabel cell_$procmux$13" s:attribute="">1</text><text x="5" y="13" class="nodelabel cell_$procmux$13" s:attribute="">0</text><g s:x="-1" s:y="10" s:pid="A"/><g s:x="-1" s:y="30" s:pid="B"/><g s:x="12" s:y="38" s:pid="S"/><g s:x="24.5" s:y="20" s:pid="Y"/></g><g s:type="mux-bus" transform="translate(696.3333333333333,639.5)" s:width="24" s:height="40" id="cell_$procmux$15"><s:alias val="$pmux-bus"/><s:alias val="$mux-bus"/><s:alias val="$_MUX_-bus"/><path d="M0,0 L20,10 L20,30 L0,40 Z" class="cell_$procmux$15"/><path d="M4,2 L4,0 L22,9 L22,31 L4,40 L4,38" class="cell_$procmux$15"/><path d="M8,2 L8,0 L24,8 L24,32 L8,40 L8,38" class="cell_$procmux$15"/><text x="5" y="32" class="nodelabel cell_$procmux$15" s:attribute="">1</text><text x="5" y="13" class="nodelabel cell_$procmux$15" s:attribute="">0</text><g s:x="-1" s:y="10" s:pid="A"/><g s:x="-1" s:y="30" s:pid="B"/><g s:x="12" s:y="38" s:pid="S"/><g s:x="24.5" s:y="20" s:pid="Y"/></g><g s:type="mux-bus" transform="translate(833.3333333333334,753.5)" s:width="24" s:height="40" id="cell_$procmux$17"><s:alias val="$pmux-bus"/><s:alias val="$mux-bus"/><s:alias val="$_MUX_-bus"/><path d="M0,0 L20,10 L20,30 L0,40 Z" class="cell_$procmux$17"/><path d="M4,2 L4,0 L22,9 L22,31 L4,40 L4,38" class="cell_$procmux$17"/><path d="M8,2 L8,0 L24,8 L24,32 L8,40 L8,38" class="cell_$procmux$17"/><text x="5" y="32" class="nodelabel cell_$procmux$17" s:attribute="">1</text><text x="5" y="13" class="nodelabel cell_$procmux$17" s:attribute="">0</text><g s:x="-1" s:y="10" s:pid="A"/><g s:x="-1" s:y="30" s:pid="B"/><g s:x="12" s:y="38" s:pid="S"/><g s:x="24.5" s:y="20" s:pid="Y"/></g><g s:type="mux-bus" transform="translate(934,851.5)" s:width="24" s:height="40" id="cell_$procmux$19"><s:alias val="$pmux-bus"/><s:alias val="$mux-bus"/><s:alias val="$_MUX_-bus"/><path d="M0,0 L20,10 L20,30 L0,40 Z" class="cell_$procmux$19"/><path d="M4,2 L4,0 L22,9 L22,31 L4,40 L4,38" class="cell_$procmux$19"/><path d="M8,2 L8,0 L24,8 L24,32 L8,40 L8,38" class="cell_$procmux$19"/><text x="5" y="32" class="nodelabel cell_$procmux$19" s:attribute="">1</text><text x="5" y="13" class="nodelabel cell_$procmux$19" s:attribute="">0</text><g s:x="-1" s:y="10" s:pid="A"/><g s:x="-1" s:y="30" s:pid="B"/><g s:x="12" s:y="38" s:pid="S"/><g s:x="24.5" s:y="20" s:pid="Y"/></g><g s:type="mux-bus" transform="translate(833.3333333333334,422)" s:width="24" s:height="40" id="cell_$procmux$7"><s:alias val="$pmux-bus"/><s:alias val="$mux-bus"/><s:alias val="$_MUX_-bus"/><path d="M0,0 L20,10 L20,30 L0,40 Z" class="cell_$procmux$7"/><path d="M4,2 L4,0 L22,9 L22,31 L4,40 L4,38" class="cell_$procmux$7"/><path d="M8,2 L8,0 L24,8 L24,32 L8,40 L8,38" class="cell_$procmux$7"/><text x="5" y="32" class="nodelabel cell_$procmux$7" s:attribute="">1</text><text x="5" y="13" class="nodelabel cell_$procmux$7" s:attribute="">0</text><g s:x="-1" s:y="10" s:pid="A"/><g s:x="-1" s:y="30" s:pid="B"/><g s:x="12" s:y="38" s:pid="S"/><g s:x="24.5" s:y="20" s:pid="Y"/></g><g s:type="mux-bus" transform="translate(934,412)" s:width="24" s:height="40" id="cell_$procmux$9"><s:alias val="$pmux-bus"/><s:alias val="$mux-bus"/><s:alias val="$_MUX_-bus"/><path d="M0,0 L20,10 L20,30 L0,40 Z" class="cell_$procmux$9"/><path d="M4,2 L4,0 L22,9 L22,31 L4,40 L4,38" class="cell_$procmux$9"/><path d="M8,2 L8,0 L24,8 L24,32 L8,40 L8,38" class="cell_$procmux$9"/><text x="5" y="32" class="nodelabel cell_$procmux$9" s:attribute="">1</text><text x="5" y="13" class="nodelabel cell_$procmux$9" s:attribute="">0</text><g s:x="-1" s:y="10" s:pid="A"/><g s:x="-1" s:y="30" s:pid="B"/><g s:x="12" s:y="38" s:pid="S"/><g s:x="24.5" s:y="20" s:pid="Y"/></g><g s:type="inputExt" transform="translate(218,162)" s:width="30" s:height="20" id="cell_readKey"><text x="15" y="-4" class="nodelabel cell_readKey" s:attribute="ref">readKey</text><s:alias val="$_inputExt_"/><path d="M0,0 L0,20 L15,20 L30,10 L15,0 Z" class="cell_readKey"/><g s:x="30" s:y="10" s:pid="Y"/></g><g s:type="inputExt" transform="translate(405,612)" s:width="30" s:height="20" id="cell_pressedkey"><text x="15" y="-4" class="nodelabel cell_pressedkey" s:attribute="ref">pressedkey</text><s:alias val="$_inputExt_"/><path d="M0,0 L0,20 L15,20 L30,10 L15,0 Z" class="cell_pressedkey"/><g s:x="30" s:y="10" s:pid="Y"/></g><g s:type="inputExt" transform="translate(162,22)" s:width="30" s:height="20" id="cell_ALUres"><text x="15" y="-4" class="nodelabel cell_ALUres" s:attribute="ref">ALUres</text><s:alias val="$_inputExt_"/><path d="M0,0 L0,20 L15,20 L30,10 L15,0 Z" class="cell_ALUres"/><g s:x="30" s:y="10" s:pid="Y"/></g><g s:type="outputExt" transform="translate(12,22)" s:width="30" s:height="20" id="cell_num1"><text x="15" y="-4" class="nodelabel cell_num1" s:attribute="ref">num1</text><s:alias val="$_outputExt_"/><path d="M30,0 L30,20 L15,20 L0,10 L15,0 Z" class="cell_num1"/><g s:x="0" s:y="10" s:pid="A"/></g><g s:type="outputExt" transform="translate(934,187)" s:width="30" s:height="20" id="cell_num2"><text x="15" y="-4" class="nodelabel cell_num2" s:attribute="ref">num2</text><s:alias val="$_outputExt_"/><path d="M30,0 L30,20 L15,20 L0,10 L15,0 Z" class="cell_num2"/><g s:x="0" s:y="10" s:pid="A"/></g><g s:type="outputExt" transform="translate(934,36)" s:width="30" s:height="20" id="cell_operation"><text x="15" y="-4" class="nodelabel cell_operation" s:attribute="ref">operation</text><s:alias val="$_outputExt_"/><path d="M30,0 L30,20 L15,20 L0,10 L15,0 Z" class="cell_operation"/><g s:x="0" s:y="10" s:pid="A"/></g><g s:type="outputExt" transform="translate(933,101)" s:width="30" s:height="20" id="cell_info2display"><text x="15" y="-4" class="nodelabel cell_info2display" s:attribute="ref">info2display</text><s:alias val="$_outputExt_"/><path d="M30,0 L30,20 L15,20 L0,10 L15,0 Z" class="cell_info2display"/><g s:x="0" s:y="10" s:pid="A"/></g><g s:type="inputExt" transform="translate(62,22)" s:width="30" s:height="20" id="cell_clk"><text x="15" y="-4" class="nodelabel cell_clk" s:attribute="ref">clk</text><s:alias val="$_inputExt_"/><path d="M0,0 L0,20 L15,20 L30,10 L15,0 Z" class="cell_clk"/><g s:x="30" s:y="10" s:pid="Y"/></g><g s:type="inputExt" transform="translate(112,22)" s:width="30" s:height="20" id="cell_reset"><text x="15" y="-4" class="nodelabel cell_reset" s:attribute="ref">reset</text><s:alias val="$_inputExt_"/><path d="M0,0 L0,20 L15,20 L30,10 L15,0 Z" class="cell_reset"/><g s:x="30" s:y="10" s:pid="Y"/></g><g s:type="outputExt" transform="translate(934,552.5)" s:width="30" s:height="20" id="cell_state"><text x="15" y="-4" class="nodelabel cell_state" s:attribute="ref">state</text><s:alias val="$_outputExt_"/><path d="M30,0 L30,20 L15,20 L0,10 L15,0 Z" class="cell_state"/><g s:x="0" s:y="10" s:pid="A"/></g><g s:type="constant" transform="translate(405,526.5)" s:width="30" s:height="20" id="cell_10"><text x="15" y="-4" class="nodelabel cell_10" s:attribute="ref">10</text><s:alias val="$_constant_"/><rect width="30" height="20" class="cell_10"/><g s:x="31" s:y="10" s:pid="Y"/></g><g s:type="constant" transform="translate(626,610.5)" s:width="30" s:height="20" id="cell_1011"><text x="15" y="-4" class="nodelabel cell_1011" s:attribute="ref">0xb</text><s:alias val="$_constant_"/><rect width="30" height="20" class="cell_1011"/><g s:x="31" s:y="10" s:pid="Y"/></g><g s:type="constant" transform="translate(500,751)" s:width="30" s:height="20" id="cell_1010"><text x="15" y="-4" class="nodelabel cell_1010" s:attribute="ref">0xa</text><s:alias val="$_constant_"/><rect width="30" height="20" class="cell_1010"/><g s:x="31" s:y="10" s:pid="Y"/></g><g s:type="constant" transform="translate(697,773.5)" s:width="30" s:height="20" id="cell_0000000000000000"><text x="15" y="-4" class="nodelabel cell_0000000000000000" s:attribute="ref">0x0</text><s:alias val="$_constant_"/><rect width="30" height="20" class="cell_0000000000000000"/><g s:x="31" s:y="10" s:pid="Y"/></g><g s:type="constant" transform="translate(697,442)" s:width="30" s:height="20" id="cell_01"><text x="15" y="-4" class="nodelabel cell_01" s:attribute="ref">01</text><s:alias val="$_constant_"/><rect width="30" height="20" class="cell_01"/><g s:x="31" s:y="10" s:pid="Y"/></g><g s:type="join" transform="translate(585,649)" s:width="4" s:height="40" id="cell_$join$,3,4,5,6,39,40,41,42,43,44,45,46,47,48,49,50,"><rect width="5" height="40" class="splitjoinBody" s:generic="body"/><s:alias val="$_join_"/><g s:x="5" s:y="20" s:pid="out"/><g transform="translate(0,10)" s:x="0" s:y="10" s:pid="in0"><text x="-3" y="-4" class="inputPortLabel">0:3</text></g><g transform="translate(0,30)" s:x="0" s:y="10" s:pid="in0"><text x="-3" y="-4" class="inputPortLabel">4:15</text></g></g><g s:type="join" transform="translate(842,542)" s:width="4" s:height="40" id="cell_$join$,77,78,39,40,41,42,"><rect width="5" height="40" class="splitjoinBody" s:generic="body"/><s:alias val="$_join_"/><g s:x="5" s:y="20" s:pid="out"/><g transform="translate(0,10)" s:x="0" s:y="10" s:pid="in0"><text x="-3" y="-4" class="inputPortLabel">0:1</text></g><g transform="translate(0,30)" s:x="0" s:y="10" s:pid="in0"><text x="-3" y="-4" class="inputPortLabel">2:5</text></g></g><g s:type="split" transform="translate(431.66666666666663,669)" s:width="5" s:height="40" id="cell_$split$,39,40,41,42,43,44,45,46,47,48,49,50,51,52,53,54,"><rect width="5" height="40" class="splitjoinBody" s:generic="body"/><s:alias val="$_split_"/><g s:x="0" s:y="20" s:pid="in"/><g transform="translate(4,10)" s:x="4" s:y="10" s:pid="out0"><text x="5" y="-4">0:11</text></g><g transform="translate(4,30)" s:x="4" s:y="10" s:pid="out0"><text x="5" y="-4">0:3</text></g></g><line x1="728" x2="748" y1="363" y2="363" class="net_77,78 width_2" style="stroke-width: 2"/><line x1="748" x2="748" y1="363" y2="343" class="net_77,78 width_2" style="stroke-width: 2"/><line x1="748" x2="541" y1="343" y2="343" class="net_77,78 width_2" style="stroke-width: 2"/><line x1="541" x2="541" y1="343" y2="521.5" class="net_77,78 width_2" style="stroke-width: 2"/><circle cx="748" cy="363" r="3" style="fill:#000" class="net_77,78 width_2"/><line x1="541" x2="568" y1="521.5" y2="521.5" class="net_77,78 width_2" style="stroke-width: 2"/><line x1="728" x2="808" y1="363" y2="363" class="net_77,78 width_2" style="stroke-width: 2"/><line x1="808" x2="808" y1="363" y2="432" class="net_77,78 width_2" style="stroke-width: 2"/><line x1="808" x2="832.3333333333334" y1="432" y2="432" class="net_77,78 width_2" style="stroke-width: 2"/><line x1="728" x2="748" y1="363" y2="363" class="net_77,78 width_2" style="stroke-width: 2"/><line x1="748" x2="748" y1="363" y2="348" class="net_77,78 width_2" style="stroke-width: 2"/><line x1="748" x2="908" y1="348" y2="348" class="net_77,78 width_2" style="stroke-width: 2"/><line x1="908" x2="908" y1="348" y2="422" class="net_77,78 width_2" style="stroke-width: 2"/><circle cx="748" cy="348" r="3" style="fill:#000" class="net_77,78 width_2"/><line x1="908" x2="933" y1="422" y2="422" class="net_77,78 width_2" style="stroke-width: 2"/><line x1="728" x2="748" y1="363" y2="363" class="net_77,78 width_2" style="stroke-width: 2"/><line x1="748" x2="748" y1="363" y2="552.5" class="net_77,78 width_2" style="stroke-width: 2"/><line x1="748" x2="842" y1="552.5" y2="552.5" class="net_77,78 width_2" style="stroke-width: 2"/><line x1="436" x2="568" y1="536.5" y2="536.5" class="net_143,144 width_2" style="stroke-width: 2"/><line x1="435" x2="485" y1="622" y2="622" class="net_3,4,5,6 width_4" style="stroke-width: 2"/><line x1="485" x2="485" y1="622" y2="829.5" class="net_3,4,5,6 width_4" style="stroke-width: 2"/><circle cx="485" cy="622" r="3" style="fill:#000" class="net_3,4,5,6 width_4"/><line x1="485" x2="765" y1="829.5" y2="829.5" class="net_3,4,5,6 width_4" style="stroke-width: 2"/><line x1="435" x2="485" y1="622" y2="622" class="net_3,4,5,6 width_4" style="stroke-width: 2"/><line x1="485" x2="485" y1="622" y2="475.5" class="net_3,4,5,6 width_4" style="stroke-width: 2"/><line x1="485" x2="738" y1="475.5" y2="475.5" class="net_3,4,5,6 width_4" style="stroke-width: 2"/><line x1="738" x2="738" y1="475.5" y2="498" class="net_3,4,5,6 width_4" style="stroke-width: 2"/><circle cx="485" cy="475.5" r="3" style="fill:#000" class="net_3,4,5,6 width_4"/><line x1="738" x2="765" y1="498" y2="498" class="net_3,4,5,6 width_4" style="stroke-width: 2"/><line x1="435" x2="485" y1="622" y2="622" class="net_3,4,5,6 width_4" style="stroke-width: 2"/><line x1="485" x2="485" y1="622" y2="700" class="net_3,4,5,6 width_4" style="stroke-width: 2"/><line x1="485" x2="601" y1="700" y2="700" class="net_3,4,5,6 width_4" style="stroke-width: 2"/><line x1="601" x2="601" y1="700" y2="746" class="net_3,4,5,6 width_4" style="stroke-width: 2"/><circle cx="485" cy="700" r="3" style="fill:#000" class="net_3,4,5,6 width_4"/><line x1="601" x2="630" y1="746" y2="746" class="net_3,4,5,6 width_4" style="stroke-width: 2"/><line x1="435" x2="485" y1="622" y2="622" class="net_3,4,5,6 width_4" style="stroke-width: 2"/><line x1="485" x2="485" y1="622" y2="308" class="net_3,4,5,6 width_4" style="stroke-width: 2"/><line x1="485" x2="832.3333333333334" y1="308" y2="308" class="net_3,4,5,6 width_4" style="stroke-width: 2"/><line x1="435" x2="541" y1="622" y2="622" class="net_3,4,5,6 width_4" style="stroke-width: 2"/><line x1="541" x2="541" y1="622" y2="659.5" class="net_3,4,5,6 width_4" style="stroke-width: 2"/><line x1="541" x2="585" y1="659.5" y2="659.5" class="net_3,4,5,6 width_4" style="stroke-width: 2"/><line x1="657" x2="667" y1="620.5" y2="620.5" class="net_145,146,147,148 width_4" style="stroke-width: 2"/><line x1="667" x2="667" y1="620.5" y2="844.5" class="net_145,146,147,148 width_4" style="stroke-width: 2"/><circle cx="667" cy="620.5" r="3" style="fill:#000" class="net_145,146,147,148 width_4"/><line x1="667" x2="765" y1="844.5" y2="844.5" class="net_145,146,147,148 width_4" style="stroke-width: 2"/><line x1="657" x2="667" y1="620.5" y2="620.5" class="net_145,146,147,148 width_4" style="stroke-width: 2"/><line x1="667" x2="667" y1="620.5" y2="513" class="net_145,146,147,148 width_4" style="stroke-width: 2"/><line x1="667" x2="765" y1="513" y2="513" class="net_145,146,147,148 width_4" style="stroke-width: 2"/><line x1="531" x2="630" y1="761" y2="761" class="net_153,154,155,156 width_4" style="stroke-width: 2"/><line x1="248" x2="280" y1="172" y2="172" class="net_2 width_1" style="stroke-width: 1"/><line x1="280" x2="280" y1="172" y2="609.5" class="net_2 width_1" style="stroke-width: 1"/><circle cx="280" cy="172" r="2" style="fill:#000" class="net_2 width_1"/><line x1="280" x2="295" y1="609.5" y2="609.5" class="net_2 width_1" style="stroke-width: 1"/><line x1="248" x2="692" y1="172" y2="172" class="net_2 width_1" style="stroke-width: 1"/><line x1="248" x2="677" y1="172" y2="172" class="net_2 width_1" style="stroke-width: 1"/><line x1="677" x2="677" y1="172" y2="131" class="net_2 width_1" style="stroke-width: 1"/><circle cx="677" cy="172" r="2" style="fill:#000" class="net_2 width_1"/><line x1="677" x2="823" y1="131" y2="131" class="net_2 width_1" style="stroke-width: 1"/><line x1="248" x2="351" y1="172" y2="172" class="net_2 width_1" style="stroke-width: 1"/><line x1="351" x2="351" y1="172" y2="383" class="net_2 width_1" style="stroke-width: 1"/><circle cx="351" cy="172" r="2" style="fill:#000" class="net_2 width_1"/><line x1="351" x2="692" y1="383" y2="383" class="net_2 width_1" style="stroke-width: 1"/><line x1="958.5" x2="1015" y1="871.5" y2="871.5" class="net_83,84,85,86,87,88,89,90,91,92,93,94,95,96,97,98 width_16" style="stroke-width: 2"/><line x1="1015" x2="1015" y1="871.5" y2="916.5" class="net_83,84,85,86,87,88,89,90,91,92,93,94,95,96,97,98 width_16" style="stroke-width: 2"/><line x1="1015" x2="270" y1="916.5" y2="916.5" class="net_83,84,85,86,87,88,89,90,91,92,93,94,95,96,97,98 width_16" style="stroke-width: 2"/><line x1="270" x2="270" y1="916.5" y2="589.5" class="net_83,84,85,86,87,88,89,90,91,92,93,94,95,96,97,98 width_16" style="stroke-width: 2"/><line x1="270" x2="295" y1="589.5" y2="589.5" class="net_83,84,85,86,87,88,89,90,91,92,93,94,95,96,97,98 width_16" style="stroke-width: 2"/><line x1="958.5" x2="1025" y1="288" y2="288" class="net_99,100,101,102 width_4" style="stroke-width: 2"/><line x1="1025" x2="1025" y1="288" y2="16" class="net_99,100,101,102 width_4" style="stroke-width: 2"/><line x1="1025" x2="667" y1="16" y2="16" class="net_99,100,101,102 width_4" style="stroke-width: 2"/><line x1="667" x2="667" y1="16" y2="152" class="net_99,100,101,102 width_4" style="stroke-width: 2"/><line x1="667" x2="692" y1="152" y2="152" class="net_99,100,101,102 width_4" style="stroke-width: 2"/><line x1="331" x2="341" y1="589.5" y2="589.5" class="net_39,40,41,42,43,44,45,46,47,48,49,50,51,52,53,54 width_16" style="stroke-width: 2"/><line x1="341" x2="341" y1="589.5" y2="111" class="net_39,40,41,42,43,44,45,46,47,48,49,50,51,52,53,54 width_16" style="stroke-width: 2"/><circle cx="341" cy="589.5" r="3" style="fill:#000" class="net_39,40,41,42,43,44,45,46,47,48,49,50,51,52,53,54 width_16"/><line x1="341" x2="823" y1="111" y2="111" class="net_39,40,41,42,43,44,45,46,47,48,49,50,51,52,53,54 width_16" style="stroke-width: 2"/><line x1="331" x2="677" y1="589.5" y2="589.5" class="net_39,40,41,42,43,44,45,46,47,48,49,50,51,52,53,54 width_16" style="stroke-width: 2"/><line x1="677" x2="677" y1="589.5" y2="649.5" class="net_39,40,41,42,43,44,45,46,47,48,49,50,51,52,53,54 width_16" style="stroke-width: 2"/><line x1="677" x2="695.3333333333333" y1="649.5" y2="649.5" class="net_39,40,41,42,43,44,45,46,47,48,49,50,51,52,53,54 width_16" style="stroke-width: 2"/><line x1="331" x2="341" y1="589.5" y2="589.5" class="net_39,40,41,42,43,44,45,46,47,48,49,50,51,52,53,54 width_16" style="stroke-width: 2"/><line x1="341" x2="341" y1="589.5" y2="861.5" class="net_39,40,41,42,43,44,45,46,47,48,49,50,51,52,53,54 width_16" style="stroke-width: 2"/><line x1="341" x2="933" y1="861.5" y2="861.5" class="net_39,40,41,42,43,44,45,46,47,48,49,50,51,52,53,54 width_16" style="stroke-width: 2"/><line x1="331" x2="341" y1="589.5" y2="589.5" class="net_39,40,41,42,43,44,45,46,47,48,49,50,51,52,53,54 width_16" style="stroke-width: 2"/><line x1="341" x2="341" y1="589.5" y2="197" class="net_39,40,41,42,43,44,45,46,47,48,49,50,51,52,53,54 width_16" style="stroke-width: 2"/><circle cx="341" cy="197" r="3" style="fill:#000" class="net_39,40,41,42,43,44,45,46,47,48,49,50,51,52,53,54 width_16"/><line x1="341" x2="934" y1="197" y2="197" class="net_39,40,41,42,43,44,45,46,47,48,49,50,51,52,53,54 width_16" style="stroke-width: 2"/><line x1="331" x2="341" y1="589.5" y2="589.5" class="net_39,40,41,42,43,44,45,46,47,48,49,50,51,52,53,54 width_16" style="stroke-width: 2"/><line x1="341" x2="341" y1="589.5" y2="689.5" class="net_39,40,41,42,43,44,45,46,47,48,49,50,51,52,53,54 width_16" style="stroke-width: 2"/><circle cx="341" cy="689.5" r="3" style="fill:#000" class="net_39,40,41,42,43,44,45,46,47,48,49,50,51,52,53,54 width_16"/><line x1="341" x2="431.66666666666663" y1="689.5" y2="689.5" class="net_39,40,41,42,43,44,45,46,47,48,49,50,51,52,53,54 width_16" style="stroke-width: 2"/><line x1="958.5" x2="1015" y1="432" y2="432" class="net_103,104 width_2" style="stroke-width: 2"/><line x1="1015" x2="1015" y1="432" y2="217" class="net_103,104 width_2" style="stroke-width: 2"/><line x1="1015" x2="677" y1="217" y2="217" class="net_103,104 width_2" style="stroke-width: 2"/><line x1="677" x2="677" y1="217" y2="363" class="net_103,104 width_2" style="stroke-width: 2"/><line x1="677" x2="692" y1="363" y2="363" class="net_103,104 width_2" style="stroke-width: 2"/><line x1="728" x2="738" y1="152" y2="152" class="net_55,56,57,58 width_4" style="stroke-width: 2"/><line x1="738" x2="738" y1="152" y2="288" class="net_55,56,57,58 width_4" style="stroke-width: 2"/><circle cx="738" cy="152" r="3" style="fill:#000" class="net_55,56,57,58 width_4"/><line x1="738" x2="832.3333333333334" y1="288" y2="288" class="net_55,56,57,58 width_4" style="stroke-width: 2"/><line x1="728" x2="738" y1="152" y2="152" class="net_55,56,57,58 width_4" style="stroke-width: 2"/><line x1="738" x2="738" y1="152" y2="237" class="net_55,56,57,58 width_4" style="stroke-width: 2"/><line x1="738" x2="908" y1="237" y2="237" class="net_55,56,57,58 width_4" style="stroke-width: 2"/><line x1="908" x2="908" y1="237" y2="278" class="net_55,56,57,58 width_4" style="stroke-width: 2"/><circle cx="738" cy="237" r="3" style="fill:#000" class="net_55,56,57,58 width_4"/><line x1="908" x2="933" y1="278" y2="278" class="net_55,56,57,58 width_4" style="stroke-width: 2"/><line x1="728" x2="738" y1="152" y2="152" class="net_55,56,57,58 width_4" style="stroke-width: 2"/><line x1="738" x2="738" y1="152" y2="46" class="net_55,56,57,58 width_4" style="stroke-width: 2"/><line x1="738" x2="934" y1="46" y2="46" class="net_55,56,57,58 width_4" style="stroke-width: 2"/><line x1="788" x2="798" y1="505.5" y2="505.5" class="net_81 width_1" style="stroke-width: 1"/><line x1="798" x2="798" y1="505.5" y2="412" class="net_81 width_1" style="stroke-width: 1"/><line x1="798" x2="845.3333333333334" y1="412" y2="412" class="net_81 width_1" style="stroke-width: 1"/><circle cx="798" cy="505.5" r="2" style="fill:#000" class="net_81 width_1"/><line x1="845.3333333333334" x2="845.3333333333334" y1="412" y2="316" class="net_81 width_1" style="stroke-width: 1"/><line x1="788" x2="845.3333333333334" y1="505.5" y2="505.5" class="net_81 width_1" style="stroke-width: 1"/><line x1="845.3333333333334" x2="845.3333333333334" y1="505.5" y2="460" class="net_81 width_1" style="stroke-width: 1"/><line x1="857.8333333333334" x2="933" y1="298" y2="298" class="net_105,106,107,108 width_4" style="stroke-width: 2"/><line x1="591" x2="611" y1="529" y2="529" class="net_79 width_1" style="stroke-width: 1"/><line x1="611" x2="611" y1="529" y2="328" class="net_79 width_1" style="stroke-width: 1"/><line x1="611" x2="946" y1="328" y2="328" class="net_79 width_1" style="stroke-width: 1"/><circle cx="611" cy="529" r="2" style="fill:#000" class="net_79 width_1"/><line x1="946" x2="946" y1="328" y2="306" class="net_79 width_1" style="stroke-width: 1"/><line x1="591" x2="611" y1="529" y2="529" class="net_79 width_1" style="stroke-width: 1"/><line x1="611" x2="611" y1="529" y2="901.5" class="net_79 width_1" style="stroke-width: 1"/><line x1="611" x2="946" y1="901.5" y2="901.5" class="net_79 width_1" style="stroke-width: 1"/><line x1="946" x2="946" y1="901.5" y2="889.5" class="net_79 width_1" style="stroke-width: 1"/><line x1="591" x2="946" y1="529" y2="529" class="net_79 width_1" style="stroke-width: 1"/><line x1="946" x2="946" y1="529" y2="450" class="net_79 width_1" style="stroke-width: 1"/><line x1="591" x2="695.3333333333333" y1="669.5" y2="669.5" class="net_3,4,5,6,39,40,41,42,43,44,45,46,47,48,49,50 width_16" style="stroke-width: 2"/><line x1="653" x2="708.3333333333333" y1="753.5" y2="753.5" class="net_82 width_1" style="stroke-width: 1"/><line x1="708.3333333333333" x2="708.3333333333333" y1="753.5" y2="677.5" class="net_82 width_1" style="stroke-width: 1"/><line x1="720.8333333333333" x2="798" y1="659.5" y2="659.5" class="net_109,110,111,112,113,114,115,116,117,118,119,120,121,122,123,124 width_16" style="stroke-width: 2"/><line x1="798" x2="798" y1="659.5" y2="763.5" class="net_109,110,111,112,113,114,115,116,117,118,119,120,121,122,123,124 width_16" style="stroke-width: 2"/><line x1="798" x2="832.3333333333334" y1="763.5" y2="763.5" class="net_109,110,111,112,113,114,115,116,117,118,119,120,121,122,123,124 width_16" style="stroke-width: 2"/><line x1="728" x2="832.3333333333334" y1="783.5" y2="783.5" class="net_157,158,159,160,161,162,163,164,165,166,167,168,169,170,171,172 width_16" style="stroke-width: 2"/><line x1="788" x2="845.3333333333334" y1="837" y2="837" class="net_80 width_1" style="stroke-width: 1"/><line x1="845.3333333333334" x2="845.3333333333334" y1="837" y2="791.5" class="net_80 width_1" style="stroke-width: 1"/><line x1="857.8333333333334" x2="869" y1="773.5" y2="773.5" class="net_125,126,127,128,129,130,131,132,133,134,135,136,137,138,139,140 width_16" style="stroke-width: 2"/><line x1="869" x2="869" y1="773.5" y2="881.5" class="net_125,126,127,128,129,130,131,132,133,134,135,136,137,138,139,140 width_16" style="stroke-width: 2"/><line x1="869" x2="933" y1="881.5" y2="881.5" class="net_125,126,127,128,129,130,131,132,133,134,135,136,137,138,139,140 width_16" style="stroke-width: 2"/><line x1="728" x2="832.3333333333334" y1="452" y2="452" class="net_173,174 width_2" style="stroke-width: 2"/><line x1="857.8333333333334" x2="933" y1="442" y2="442" class="net_141,142 width_2" style="stroke-width: 2"/><line x1="859" x2="933" y1="111" y2="111" class="net_59,60,61,62,63,64,65,66,67,68,69,70,71,72,73,74 width_16" style="stroke-width: 2"/><line x1="848" x2="934" y1="562.5" y2="562.5" class="net_77,78,39,40,41,42 width_6" style="stroke-width: 2"/><line x1="436.66666666666663" x2="585" y1="679.5" y2="679.5" class="net_39,40,41,42,43,44,45,46,47,48,49,50 width_12" style="stroke-width: 2"/><line x1="436.66666666666663" x2="475" y1="699.5" y2="699.5" class="net_39,40,41,42 width_4" style="stroke-width: 2"/><line x1="475" x2="475" y1="699.5" y2="572.5" class="net_39,40,41,42 width_4" style="stroke-width: 2"/><line x1="475" x2="842" y1="572.5" y2="572.5" class="net_39,40,41,42 width_4" style="stroke-width: 2"/><rect x="774.5" y="547.5" width="16" height="9" class="net_77,78 width_2 busLabel_2" style="fill: white; stroke: none"/><text x="773.5" y="555.5" class="net_77,78 width_2 busLabel_2">/2/</text><rect x="774.5" y="547.5" width="16" height="9" class="net_77,78 width_2 busLabel_2" style="fill: white; stroke: none"/><text x="773.5" y="555.5" class="net_77,78 width_2 busLabel_2">/2/</text><rect x="774.5" y="547.5" width="16" height="9" class="net_77,78 width_2 busLabel_2" style="fill: white; stroke: none"/><text x="773.5" y="555.5" class="net_77,78 width_2 busLabel_2">/2/</text><rect x="774.5" y="547.5" width="16" height="9" class="net_77,78 width_2 busLabel_2" style="fill: white; stroke: none"/><text x="773.5" y="555.5" class="net_77,78 width_2 busLabel_2">/2/</text><rect x="514.5" y="531.5" width="16" height="9" class="net_143,144 width_2 busLabel_2" style="fill: white; stroke: none"/><text x="513.5" y="539.5" class="net_143,144 width_2 busLabel_2">/2/</text><rect x="514.5" y="617" width="16" height="9" class="net_3,4,5,6 width_4 busLabel_4" style="fill: white; stroke: none"/><text x="513.5" y="625" class="net_3,4,5,6 width_4 busLabel_4">/4/</text><rect x="514.5" y="617" width="16" height="9" class="net_3,4,5,6 width_4 busLabel_4" style="fill: white; stroke: none"/><text x="513.5" y="625" class="net_3,4,5,6 width_4 busLabel_4">/4/</text><rect x="514.5" y="617" width="16" height="9" class="net_3,4,5,6 width_4 busLabel_4" style="fill: white; stroke: none"/><text x="513.5" y="625" class="net_3,4,5,6 width_4 busLabel_4">/4/</text><rect x="514.5" y="617" width="16" height="9" class="net_3,4,5,6 width_4 busLabel_4" style="fill: white; stroke: none"/><text x="513.5" y="625" class="net_3,4,5,6 width_4 busLabel_4">/4/</text><rect x="514.5" y="617" width="16" height="9" class="net_3,4,5,6 width_4 busLabel_4" style="fill: white; stroke: none"/><text x="513.5" y="625" class="net_3,4,5,6 width_4 busLabel_4">/4/</text><rect x="709" y="508" width="16" height="9" class="net_145,146,147,148 width_4 busLabel_4" style="fill: white; stroke: none"/><text x="708" y="516" class="net_145,146,147,148 width_4 busLabel_4">/4/</text><rect x="709" y="508" width="16" height="9" class="net_145,146,147,148 width_4 busLabel_4" style="fill: white; stroke: none"/><text x="708" y="516" class="net_145,146,147,148 width_4 busLabel_4">/4/</text><rect x="577.5" y="756" width="16" height="9" class="net_153,154,155,156 width_4 busLabel_4" style="fill: white; stroke: none"/><text x="576.5" y="764" class="net_153,154,155,156 width_4 busLabel_4">/4/</text><rect x="640.5" y="911.5" width="22" height="9" class="net_83,84,85,86,87,88,89,90,91,92,93,94,95,96,97,98 width_16 busLabel_16" style="fill: white; stroke: none"/><text x="639.5" y="919.5" class="net_83,84,85,86,87,88,89,90,91,92,93,94,95,96,97,98 width_16 busLabel_16">/16/</text><rect x="840" y="11" width="16" height="9" class="net_99,100,101,102 width_4 busLabel_4" style="fill: white; stroke: none"/><text x="839" y="19" class="net_99,100,101,102 width_4 busLabel_4">/4/</text><rect x="367" y="684.5" width="22" height="9" class="net_39,40,41,42,43,44,45,46,47,48,49,50,51,52,53,54 width_16 busLabel_16" style="fill: white; stroke: none"/><text x="366" y="692.5" class="net_39,40,41,42,43,44,45,46,47,48,49,50,51,52,53,54 width_16 busLabel_16">/16/</text><rect x="367" y="684.5" width="22" height="9" class="net_39,40,41,42,43,44,45,46,47,48,49,50,51,52,53,54 width_16 busLabel_16" style="fill: white; stroke: none"/><text x="366" y="692.5" class="net_39,40,41,42,43,44,45,46,47,48,49,50,51,52,53,54 width_16 busLabel_16">/16/</text><rect x="367" y="684.5" width="22" height="9" class="net_39,40,41,42,43,44,45,46,47,48,49,50,51,52,53,54 width_16 busLabel_16" style="fill: white; stroke: none"/><text x="366" y="692.5" class="net_39,40,41,42,43,44,45,46,47,48,49,50,51,52,53,54 width_16 busLabel_16">/16/</text><rect x="367" y="684.5" width="22" height="9" class="net_39,40,41,42,43,44,45,46,47,48,49,50,51,52,53,54 width_16 busLabel_16" style="fill: white; stroke: none"/><text x="366" y="692.5" class="net_39,40,41,42,43,44,45,46,47,48,49,50,51,52,53,54 width_16 busLabel_16">/16/</text><rect x="367" y="684.5" width="22" height="9" class="net_39,40,41,42,43,44,45,46,47,48,49,50,51,52,53,54 width_16 busLabel_16" style="fill: white; stroke: none"/><text x="366" y="692.5" class="net_39,40,41,42,43,44,45,46,47,48,49,50,51,52,53,54 width_16 busLabel_16">/16/</text><rect x="840" y="212" width="16" height="9" class="net_103,104 width_2 busLabel_2" style="fill: white; stroke: none"/><text x="839" y="220" class="net_103,104 width_2 busLabel_2">/2/</text><rect x="840" y="41" width="16" height="9" class="net_55,56,57,58 width_4 busLabel_4" style="fill: white; stroke: none"/><text x="839" y="49" class="net_55,56,57,58 width_4 busLabel_4">/4/</text><rect x="840" y="41" width="16" height="9" class="net_55,56,57,58 width_4 busLabel_4" style="fill: white; stroke: none"/><text x="839" y="49" class="net_55,56,57,58 width_4 busLabel_4">/4/</text><rect x="840" y="41" width="16" height="9" class="net_55,56,57,58 width_4 busLabel_4" style="fill: white; stroke: none"/><text x="839" y="49" class="net_55,56,57,58 width_4 busLabel_4">/4/</text><rect x="895" y="293" width="16" height="9" class="net_105,106,107,108 width_4 busLabel_4" style="fill: white; stroke: none"/><text x="894" y="301" class="net_105,106,107,108 width_4 busLabel_4">/4/</text><rect x="640.5" y="664.5" width="22" height="9" class="net_3,4,5,6,39,40,41,42,43,44,45,46,47,48,49,50 width_16 busLabel_16" style="fill: white; stroke: none"/><text x="639.5" y="672.5" class="net_3,4,5,6,39,40,41,42,43,44,45,46,47,48,49,50 width_16 busLabel_16">/16/</text><rect x="774.5" y="654.5" width="22" height="9" class="net_109,110,111,112,113,114,115,116,117,118,119,120,121,122,123,124 width_16 busLabel_16" style="fill: white; stroke: none"/><text x="773.5" y="662.5" class="net_109,110,111,112,113,114,115,116,117,118,119,120,121,122,123,124 width_16 busLabel_16">/16/</text><rect x="774.5" y="778.5" width="22" height="9" class="net_157,158,159,160,161,162,163,164,165,166,167,168,169,170,171,172 width_16 busLabel_16" style="fill: white; stroke: none"/><text x="773.5" y="786.5" class="net_157,158,159,160,161,162,163,164,165,166,167,168,169,170,171,172 width_16 busLabel_16">/16/</text><rect x="895" y="876.5" width="22" height="9" class="net_125,126,127,128,129,130,131,132,133,134,135,136,137,138,139,140 width_16 busLabel_16" style="fill: white; stroke: none"/><text x="894" y="884.5" class="net_125,126,127,128,129,130,131,132,133,134,135,136,137,138,139,140 width_16 busLabel_16">/16/</text><rect x="774.5" y="447" width="16" height="9" class="net_173,174 width_2 busLabel_2" style="fill: white; stroke: none"/><text x="773.5" y="455" class="net_173,174 width_2 busLabel_2">/2/</text><rect x="895" y="437" width="16" height="9" class="net_141,142 width_2 busLabel_2" style="fill: white; stroke: none"/><text x="894" y="445" class="net_141,142 width_2 busLabel_2">/2/</text><rect x="895" y="106" width="22" height="9" class="net_59,60,61,62,63,64,65,66,67,68,69,70,71,72,73,74 width_16 busLabel_16" style="fill: white; stroke: none"/><text x="894" y="114" class="net_59,60,61,62,63,64,65,66,67,68,69,70,71,72,73,74 width_16 busLabel_16">/16/</text><rect x="895" y="557.5" width="16" height="9" class="net_77,78,39,40,41,42 width_6 busLabel_6" style="fill: white; stroke: none"/><text x="894" y="565.5" class="net_77,78,39,40,41,42 width_6 busLabel_6">/6/</text><rect x="514.5" y="674.5" width="22" height="9" class="net_39,40,41,42,43,44,45,46,47,48,49,50 width_12 busLabel_12" style="fill: white; stroke: none"/><text x="513.5" y="682.5" class="net_39,40,41,42,43,44,45,46,47,48,49,50 width_12 busLabel_12">/12/</text><rect x="640.5" y="567.5" width="16" height="9" class="net_39,40,41,42 width_4 busLabel_4" style="fill: white; stroke: none"/><text x="639.5" y="575.5" class="net_39,40,41,42 width_4 busLabel_4">/4/</text></svg>